<svg width="16" height="17" viewBox="0 0 16 17" fill="none" xmlns="http://www.w3.org/2000/svg">
<path fill-rule="evenodd" clip-rule="evenodd" d="M1 8.5C1 8.36739 1.05268 8.24021 1.14645 8.14645C1.24021 8.05268 1.36739 8 1.5 8H13.293L10.146 4.854C10.0521 4.76011 9.99937 4.63277 9.99937 4.5C9.99937 4.36722 10.0521 4.23988 10.146 4.146C10.2399 4.05211 10.3672 3.99937 10.5 3.99937C10.6328 3.99937 10.7601 4.05211 10.854 4.146L14.854 8.146C14.9006 8.19244 14.9375 8.24762 14.9627 8.30836C14.9879 8.36911 15.0009 8.43423 15.0009 8.5C15.0009 8.56577 14.9879 8.63089 14.9627 8.69163C14.9375 8.75238 14.9006 8.80755 14.854 8.854L10.854 12.854C10.7601 12.9479 10.6328 13.0006 10.5 13.0006C10.3672 13.0006 10.2399 12.9479 10.146 12.854C10.0521 12.7601 9.99937 12.6328 9.99937 12.5C9.99937 12.3672 10.0521 12.2399 10.146 12.146L13.293 9H1.5C1.36739 9 1.24021 8.94732 1.14645 8.85355C1.05268 8.75978 1 8.63261 1 8.5Z" fill="black"/>
</svg>
