<svg width="20" height="20" viewBox="0 0 20 20" fill="none" xmlns="http://www.w3.org/2000/svg">
<path d="M9.44875 5.76107L10 6.64337L10.5512 5.76107C11.3883 4.42131 12.863 3.56666 14.5455 3.56666C17.1753 3.56666 19.35 5.76435 19.35 8.47221C19.35 9.66908 18.8081 10.9249 17.91 12.1723C17.0164 13.4133 15.8113 14.5889 14.5839 15.6118C13.3596 16.632 12.1321 17.4847 11.209 18.083C10.748 18.3818 10.3645 18.6161 10.0972 18.7752C10.0633 18.7954 10.0313 18.8144 10.0012 18.8321C9.97097 18.8141 9.93871 18.7949 9.90454 18.7744C9.63717 18.6141 9.25355 18.3781 8.79251 18.0775C7.86917 17.4754 6.6414 16.6183 5.4168 15.595C4.1891 14.569 2.98354 13.3917 2.0897 12.1523C1.19093 10.9061 0.65 9.65646 0.65 8.47221C0.65 5.76435 2.82472 3.56666 5.45455 3.56666C7.13704 3.56666 8.61167 4.42131 9.44875 5.76107Z" stroke="#282828" stroke-width="1.3"/>
</svg>
