<svg width="20" height="20" viewBox="0 0 20 20" fill="none" xmlns="http://www.w3.org/2000/svg">
<g clip-path="url(#clip0_70_582)">
<mask id="path-1-inside-1_70_582" fill="white">
<path d="M3.26533 19.1973L3.86133 18.8987L3.26533 19.1973ZM16.7347 19.1973L17.3307 19.496L16.7347 19.1973ZM0.937333 8.00001H19.0627V6.66667H0.937333V8.00001ZM18.6667 7.60401V8.18934H20V7.60401H18.6667ZM16.5147 18.6667H3.48533V20H16.5147V18.6667ZM1.33333 8.18934V7.60401H0V8.18934H1.33333ZM3.86133 18.8987C2.1988 15.5735 1.33329 11.907 1.33333 8.18934H0C0 12.1147 0.913333 15.9853 2.66933 19.496L3.86133 18.8987ZM3.48533 18.6667C3.64533 18.6667 3.79067 18.7573 3.86133 18.8987L2.66933 19.496C2.74524 19.6474 2.86175 19.7747 3.00585 19.8637C3.14995 19.9527 3.31596 19.9999 3.48533 20V18.6667ZM16.1387 18.8987C16.1736 18.8289 16.2273 18.7702 16.2937 18.7292C16.3601 18.6883 16.4366 18.6666 16.5147 18.6667V20C16.8613 20 17.176 19.8053 17.3307 19.496L16.1387 18.8987ZM18.6667 8.18934C18.6667 11.9067 17.8 15.5733 16.1387 18.8987L17.3307 19.496C19.0861 15.9854 20 12.1143 20 8.18934H18.6667ZM19.0627 8.00001C18.9576 8.00001 18.8569 7.95828 18.7827 7.88402C18.7084 7.80975 18.6667 7.70903 18.6667 7.60401H20C20 7.35541 19.9012 7.11699 19.7255 6.94121C19.5497 6.76543 19.3113 6.66667 19.0627 6.66667V8.00001ZM0.937333 6.66667C0.688737 6.66667 0.450323 6.76543 0.274539 6.94121C0.0987545 7.11699 0 7.35541 0 7.60401H1.33333C1.33333 7.70903 1.29161 7.80975 1.21735 7.88402C1.14308 7.95828 1.04236 8.00001 0.937333 8.00001V6.66667ZM5.23867 7.67601L9.23867 1.00934L8.09333 0.324005L4.09333 6.99067L5.23733 7.67601H5.23867ZM10.7613 1.00934L14.7613 7.67601L15.9053 6.99067L11.9053 0.324005L10.7613 1.00934Z"/>
</mask>
<path d="M0.937333 8.00001H-0.0626666V9.00001H0.937333V8.00001ZM19.0627 8.00001V9.00001H20.0627V8.00001H19.0627ZM19.0627 6.66667H20.0627V5.66667H19.0627V6.66667ZM0.937333 6.66667V5.66667H-0.0626666V6.66667H0.937333ZM18.6667 7.60401V6.60401H17.6667V7.60401H18.6667ZM18.6667 8.18934H17.6667V9.18934H18.6667V8.18934ZM20 8.18934V9.18934H21V8.18934H20ZM20 7.60401H21V6.60401H20V7.60401ZM16.5147 18.6667H17.5147V17.6667H16.5147V18.6667ZM3.48533 18.6667V17.6667H2.48533V18.6667H3.48533ZM3.48533 20H2.48533V21H3.48533V20ZM16.5147 20V21H17.5147V20H16.5147ZM1.33333 8.18934V9.18934H2.33333V8.18934H1.33333ZM1.33333 7.60401H2.33333V6.60401H1.33333V7.60401ZM0 7.60401V6.60401H-1V7.60401H0ZM0 8.18934H-1V9.18934H0V8.18934ZM3.86133 18.8987L4.30935 19.7927L5.20256 19.3451L4.75577 18.4515L3.86133 18.8987ZM1.33333 8.18934L2.33333 8.18935L2.33335 7.18934H1.33333V8.18934ZM0 8.18934V7.18934H-1V8.18934H0ZM2.66933 19.496L1.77497 19.9434L2.22266 20.8384L3.11735 20.39L2.66933 19.496ZM3.48533 18.6667V17.6667H2.48533V18.6667H3.48533ZM3.86133 18.8987L4.30935 19.7927L5.20257 19.3451L4.75576 18.4515L3.86133 18.8987ZM2.66933 19.496L2.22132 18.602L1.32713 19.0501L1.77539 19.9442L2.66933 19.496ZM3.48533 20L3.48482 21L4.48533 21.0005V20H3.48533ZM16.1387 18.8987L15.2444 18.4511L14.797 19.3449L15.6907 19.7927L16.1387 18.8987ZM16.5147 18.6667H17.5147V17.6677L16.5157 17.6667L16.5147 18.6667ZM16.5147 20H15.5147V21H16.5147V20ZM17.3307 19.496L18.2251 19.9432L18.6719 19.0496L17.7787 18.602L17.3307 19.496ZM18.6667 8.18934V7.18934H17.6667V8.18934H18.6667ZM16.1387 18.8987L15.2441 18.4517L14.7977 19.3452L15.6907 19.7927L16.1387 18.8987ZM17.3307 19.496L16.8827 20.39L17.7774 20.8384L18.2251 19.9433L17.3307 19.496ZM20 8.18934L21 8.18933L21 7.18934H20V8.18934ZM19.0627 8.00001V9.00001H20.0627V8.00001H19.0627ZM18.6667 7.60401V6.60401H17.6667V7.60401H18.6667ZM20 7.60401V8.60401H21V7.60401H20ZM19.0627 6.66667V5.66667H18.0627V6.66667H19.0627ZM0.937333 6.66667H1.93733V5.66667H0.937333V6.66667ZM0 7.60401H-1V8.60401H0V7.60401ZM1.33333 7.60401H2.33333V6.60401H1.33333V7.60401ZM0.937333 8.00001H-0.0626666V9.00001H0.937333V8.00001ZM5.23867 7.67601V8.67601H5.80486L6.09616 8.1905L5.23867 7.67601ZM9.23867 1.00934L10.0962 1.52383L10.6113 0.665313L9.75213 0.151229L9.23867 1.00934ZM8.09333 0.324005L8.6068 -0.534104L7.74972 -1.04696L7.23584 -0.190491L8.09333 0.324005ZM4.09333 6.99067L3.23584 6.47618L2.72099 7.33426L3.57943 7.84852L4.09333 6.99067ZM5.23733 7.67601L4.72343 8.53385L4.96072 8.67601H5.23733V7.67601ZM14.7613 7.67601L13.9038 8.1905L14.418 9.04741L15.2752 8.53385L14.7613 7.67601ZM15.9053 6.99067L16.4192 7.84852L17.2777 7.33426L16.7628 6.47618L15.9053 6.99067ZM11.9053 0.324005L12.7628 -0.190491L12.2487 -1.0474L11.3914 -0.53384L11.9053 0.324005ZM3.71335 20.0914L4.30935 19.7927L3.41332 18.0046L2.81732 18.3033L3.71335 20.0914ZM3.41332 18.0046L2.81732 18.3033L3.71335 20.0914L4.30935 19.7927L3.41332 18.0046ZM16.2867 20.0914L16.8827 20.39L17.7787 18.602L17.1827 18.3033L16.2867 20.0914ZM17.7787 18.602L17.1827 18.3033L16.2867 20.0914L16.8827 20.39L17.7787 18.602ZM0.937333 9.00001H19.0627V7.00001H0.937333V9.00001ZM20.0627 8.00001V6.66667H18.0627V8.00001H20.0627ZM19.0627 5.66667H0.937333V7.66667H19.0627V5.66667ZM-0.0626666 6.66667V8.00001H1.93733V6.66667H-0.0626666ZM17.6667 7.60401V8.18934H19.6667V7.60401H17.6667ZM18.6667 9.18934H20V7.18934H18.6667V9.18934ZM21 8.18934V7.60401H19V8.18934H21ZM20 6.60401H18.6667V8.60401H20V6.60401ZM16.5147 17.6667H3.48533V19.6667H16.5147V17.6667ZM2.48533 18.6667V20H4.48533V18.6667H2.48533ZM3.48533 21H16.5147V19H3.48533V21ZM17.5147 20V18.6667H15.5147V20H17.5147ZM2.33333 8.18934V7.60401H0.333333V8.18934H2.33333ZM1.33333 6.60401H0V8.60401H1.33333V6.60401ZM-1 7.60401V8.18934H1V7.60401H-1ZM0 9.18934H1.33333V7.18934H0V9.18934ZM4.75577 18.4515C3.16266 15.2652 2.33329 11.7517 2.33333 8.18935L0.333333 8.18933C0.333286 12.0622 1.23494 15.8819 2.9669 19.3459L4.75577 18.4515ZM1.33333 7.18934H0V9.18934H1.33333V7.18934ZM-1 8.18934C-1 12.2698 -0.0505523 16.2937 1.77497 19.9434L3.56369 19.0487C1.87722 15.677 1 11.9595 1 8.18934H-1ZM3.11735 20.39L4.30935 19.7927L3.41332 18.0046L2.22132 18.602L3.11735 20.39ZM3.48533 19.6667C3.26555 19.6667 3.06518 19.5424 2.96691 19.3459L4.75576 18.4515C4.51615 17.9722 4.02512 17.6667 3.48533 17.6667V19.6667ZM3.41332 18.0046L2.22132 18.602L3.11735 20.39L4.30935 19.7927L3.41332 18.0046ZM1.77539 19.9442C1.93441 20.2614 2.17849 20.5281 2.48036 20.7145L3.53135 19.0129C3.54502 19.0214 3.55608 19.0335 3.56328 19.0478L1.77539 19.9442ZM2.48036 20.7145C2.78223 20.901 3.13001 20.9998 3.48482 21L3.48585 19C3.50192 19 3.51767 19.0045 3.53135 19.0129L2.48036 20.7145ZM4.48533 20V18.6667H2.48533V20H4.48533ZM17.0329 19.3463C16.9847 19.4427 16.9105 19.5237 16.8188 19.5803L15.7686 17.8782C15.544 18.0167 15.3625 18.2151 15.2444 18.4511L17.0329 19.3463ZM16.8188 19.5803C16.7271 19.6369 16.6214 19.6668 16.5137 19.6667L16.5157 17.6667C16.2518 17.6664 15.9931 17.7397 15.7686 17.8782L16.8188 19.5803ZM15.5147 18.6667V20H17.5147V18.6667H15.5147ZM16.5147 21C17.24 21 17.901 20.5914 18.2251 19.9432L16.4362 19.0488C16.451 19.0192 16.4827 19 16.5147 19V21ZM17.7787 18.602L16.5867 18.0046L15.6907 19.7927L16.8827 20.39L17.7787 18.602ZM17.6667 8.18934C17.6667 11.7512 16.8362 15.2649 15.2441 18.4517L17.0332 19.3456C18.7638 15.8818 19.6667 12.0621 19.6667 8.18934H17.6667ZM15.6907 19.7927L16.8827 20.39L17.7787 18.602L16.5867 18.0046L15.6907 19.7927ZM18.2251 19.9433C20.05 16.2938 21 12.2696 21 8.18933L19 8.18935C19 11.9591 18.1223 15.6771 16.4363 19.0488L18.2251 19.9433ZM20 7.18934H18.6667V9.18934H20V7.18934ZM19.0627 7.00001C19.2229 7.00001 19.3765 7.06364 19.4898 7.17691L18.0755 8.59113C18.3373 8.85293 18.6924 9.00001 19.0627 9.00001V7.00001ZM19.4898 7.17691C19.603 7.29018 19.6667 7.44381 19.6667 7.60401H17.6667C17.6667 7.97425 17.8137 8.32933 18.0755 8.59113L19.4898 7.17691ZM18.6667 8.60401H20V6.60401H18.6667V8.60401ZM21 7.60401C21 7.09019 20.7959 6.59742 20.4326 6.2341L19.0184 7.64832C19.0066 7.63657 19 7.62063 19 7.60401H21ZM20.4326 6.2341C20.0692 5.87078 19.5765 5.66667 19.0627 5.66667V7.66667C19.046 7.66667 19.0301 7.66007 19.0184 7.64832L20.4326 6.2341ZM18.0627 6.66667V8.00001H20.0627V6.66667H18.0627ZM0.937333 5.66667C0.42352 5.66667 -0.0692479 5.87078 -0.432568 6.2341L0.981645 7.64832C0.969893 7.66007 0.953954 7.66667 0.937333 7.66667V5.66667ZM-0.432568 6.2341C-0.795889 6.59742 -1 7.09019 -1 7.60401H1C1 7.62063 0.993398 7.63657 0.981645 7.64832L-0.432568 6.2341ZM0 8.60401H1.33333V6.60401H0V8.60401ZM0.333333 7.60401C0.333333 7.44381 0.396969 7.29018 0.510241 7.17691L1.92445 8.59113C2.18625 8.32933 2.33333 7.97425 2.33333 7.60401H0.333333ZM0.510241 7.17691C0.623512 7.06364 0.777142 7.00001 0.937333 7.00001V9.00001C1.30758 9.00001 1.66265 8.85293 1.92445 8.59113L0.510241 7.17691ZM1.93733 8.00001V6.66667H-0.0626666V8.00001H1.93733ZM6.09616 8.1905L10.0962 1.52383L8.38117 0.494843L4.38117 7.16151L6.09616 8.1905ZM9.75213 0.151229L8.6068 -0.534104L7.57987 1.18211L8.7252 1.86745L9.75213 0.151229ZM7.23584 -0.190491L3.23584 6.47618L4.95083 7.50517L8.95083 0.838501L7.23584 -0.190491ZM3.57943 7.84852L4.72343 8.53385L5.75124 6.81816L4.60724 6.13283L3.57943 7.84852ZM5.23733 8.67601H5.23867V6.67601H5.23733V8.67601ZM9.90384 1.52383L13.9038 8.1905L15.6188 7.16151L11.6188 0.494843L9.90384 1.52383ZM15.2752 8.53385L16.4192 7.84852L15.3914 6.13283L14.2474 6.81816L15.2752 8.53385ZM16.7628 6.47618L12.7628 -0.190491L11.0478 0.838501L15.0478 7.50517L16.7628 6.47618ZM11.3914 -0.53384L10.2474 0.151493L11.2752 1.86718L12.4192 1.18185L11.3914 -0.53384Z" fill="#282828" mask="url(#path-1-inside-1_70_582)"/>
</g>
<defs>
<clipPath id="clip0_70_582">
<rect width="20" height="20" fill="white"/>
</clipPath>
</defs>
</svg>
