<svg width="17" height="17" viewBox="0 0 17 17" fill="none" xmlns="http://www.w3.org/2000/svg">
<g clip-path="url(#clip0_86_761)">
<path d="M6.96984 13.6C3.29784 13.6 0.339844 10.642 0.339844 6.97C0.339844 3.298 3.29784 0.339996 6.96984 0.339996C10.6418 0.339996 13.5998 3.298 13.5998 6.97C13.5998 10.642 10.6418 13.6 6.96984 13.6ZM6.96984 1.36C3.85884 1.36 1.35984 3.859 1.35984 6.97C1.35984 10.081 3.85884 12.58 6.96984 12.58C10.0808 12.58 12.5798 10.081 12.5798 6.97C12.5798 3.859 10.0808 1.36 6.96984 1.36Z" fill="black"/>
<path d="M11.9608 11.22L16.6607 15.9199L15.9206 16.66L11.2207 11.9601L11.9608 11.22Z" fill="black"/>
</g>
<defs>
<clipPath id="clip0_86_761">
<rect width="17" height="17" fill="white"/>
</clipPath>
</defs>
</svg>
