<svg width="20" height="20" viewBox="0 0 20 20" fill="none" xmlns="http://www.w3.org/2000/svg">
<g opacity="0.5" clip-path="url(#clip0_86_1106)">
<path d="M6 4V2C6 1.64638 6.14048 1.30724 6.39052 1.05719C6.64057 0.807142 6.97971 0.666667 7.33333 0.666667H12.6667C13.0203 0.666667 13.3594 0.807142 13.6095 1.05719C13.8595 1.30724 14 1.64638 14 2V4M0 4.66667H20M2 4.66667V18C2 18.3536 2.14048 18.6928 2.39052 18.9428C2.64057 19.1929 2.97971 19.3333 3.33333 19.3333H16.6667C17.0203 19.3333 17.3594 19.1929 17.6095 18.9428C17.8595 18.6928 18 18.3536 18 18V4.66667M10 9.33333V16M6 12V16M14 12V16" stroke="black"/>
</g>
<defs>
<clipPath id="clip0_86_1106">
<rect width="20" height="20" fill="white"/>
</clipPath>
</defs>
</svg>
